<svg width="1439" height="598" viewBox="0 0 1439 598" fill="none" xmlns="http://www.w3.org/2000/svg">
<path d="M1636.28 -375C1489.91 -329.604 1260.42 -237.734 1377.17 52.2778C1525.74 421.338 1888.81 324.654 1727.56 609.506" stroke="#8090FF" stroke-width="1.29"/>
<path d="M1595.42 -308.012C1449.05 -262.616 1219.56 -170.746 1336.31 119.266C1484.88 488.326 1847.94 391.642 1686.69 676.494" stroke="#8090FF" stroke-width="1.29"/>
<path d="M1552.62 -246.328C1406.24 -200.932 1176.75 -109.062 1293.5 180.95C1442.08 550.009 1805.14 453.326 1643.89 738.178" stroke="#8090FF" stroke-width="1.29"/>
<path d="M1507.67 -191.45C1361.29 -146.054 1131.8 -54.1836 1248.55 235.828C1397.13 604.888 1760.19 508.204 1598.94 793.056" stroke="#8090FF" stroke-width="1.29"/>
<path d="M1460.47 -145.158C1314.1 -99.7617 1084.61 -7.8914 1201.36 282.12C1349.93 651.18 1712.99 554.497 1551.75 839.348" stroke="#8090FF" stroke-width="1.29"/>
<path d="M1411.17 -109.247C1264.8 -63.8511 1035.31 28.0192 1152.06 318.031C1300.63 687.09 1663.7 590.407 1502.45 875.259" stroke="#8090FF" stroke-width="1.29"/>
<path d="M1360.21 -84.9849C1213.84 -39.5888 984.346 52.2816 1101.1 342.293C1249.67 711.353 1612.73 614.669 1451.48 899.521" stroke="#8090FF" stroke-width="1.29"/>
<path d="M1308.25 -72.4851C1161.87 -27.089 932.384 64.7813 1049.13 354.793C1197.71 723.853 1560.77 627.169 1399.52 912.021" stroke="#8090FF" stroke-width="1.29"/>
<path d="M1255.94 -70.5063C1109.56 -25.1102 880.075 66.7601 996.825 356.771C1145.4 725.831 1508.46 629.148 1347.21 914" stroke="#8090FF" stroke-width="1.29"/>
<path d="M1203.71 -76.8617C1057.34 -31.4656 827.848 60.4047 944.598 350.416C1093.17 719.476 1456.24 622.793 1294.99 907.644" stroke="#8090FF" stroke-width="1.29"/>
<path d="M1151.74 -89.0902C1005.36 -43.6941 775.871 48.1762 892.621 338.188C1041.19 707.247 1404.26 610.564 1243.01 895.416" stroke="#8090FF" stroke-width="1.29"/>
<path d="M1099.99 -104.93C953.616 -59.534 724.126 32.3364 840.876 322.348C989.449 691.408 1352.51 594.724 1191.26 879.576" stroke="#8090FF" stroke-width="1.29"/>
<path d="M1048.38 -122.518C902.006 -77.1215 672.516 14.7489 789.267 304.76C937.839 673.82 1300.9 577.137 1139.66 861.989" stroke="#8090FF" stroke-width="1.29"/>
<path d="M996.796 -140.401C850.42 -95.0044 620.93 -3.13407 737.681 286.877C886.253 655.937 1249.32 559.254 1088.07 844.106" stroke="#8090FF" stroke-width="1.29"/>
<path d="M945.145 -157.484C798.77 -112.088 569.28 -20.2176 686.03 269.794C834.603 638.854 1197.67 542.17 1036.42 827.022" stroke="#8090FF" stroke-width="1.29"/>
<path d="M893.375 -172.966C746.999 -127.57 517.509 -35.6997 634.26 254.312C782.832 623.371 1145.9 526.688 984.648 811.54" stroke="#8090FF" stroke-width="1.29"/>
<path d="M841.461 -186.276C695.085 -140.88 465.596 -49.0094 582.346 241.002C730.919 610.062 1093.98 513.378 932.734 798.23" stroke="#8090FF" stroke-width="1.29"/>
<path d="M789.406 -197.026C643.03 -151.63 413.541 -59.7596 530.291 230.252C678.864 599.312 1041.93 502.628 880.679 787.48" stroke="#8090FF" stroke-width="1.29"/>
<path d="M736.909 -205.072C590.534 -159.676 361.044 -67.8052 477.794 222.206C626.367 591.266 989.432 494.583 828.183 779.435" stroke="#8090FF" stroke-width="1.29"/>
<path d="M684.679 -211.264C538.303 -165.868 308.813 -73.9978 425.563 216.013C574.136 585.073 937.202 488.39 775.952 773.242" stroke="#8090FF" stroke-width="1.29"/>
<path d="M632.409 -215.91C486.034 -170.514 256.544 -78.6435 373.294 211.368C521.867 580.428 884.932 483.744 723.683 768.596" stroke="#8090FF" stroke-width="1.29"/>
<path d="M580.11 -218.796C433.734 -173.4 204.245 -81.5295 320.995 208.482C469.568 577.542 832.633 480.858 671.383 765.71" stroke="#8090FF" stroke-width="1.29"/>
<path d="M527.794 -219.656C381.418 -174.26 151.928 -82.3899 268.679 207.621C417.251 576.681 780.317 479.998 619.067 764.85" stroke="#8090FF" stroke-width="1.29"/>
<path d="M475.481 -218.152C329.105 -172.756 99.6153 -80.8853 216.365 209.126C364.938 578.186 728.004 481.503 566.754 766.354" stroke="#8090FF" stroke-width="1.29"/>
<path d="M423.205 -213.835C276.829 -168.439 47.3393 -76.5683 164.089 213.443C312.662 582.503 675.728 485.82 514.478 770.671" stroke="#8090FF" stroke-width="1.29"/>
<path d="M371.022 -206.101C224.647 -160.705 -4.84297 -68.8349 111.907 221.176C260.48 590.236 623.545 493.553 462.296 778.405" stroke="#8090FF" stroke-width="1.29"/>
<path d="M319.032 -194.103C172.656 -148.707 -56.8335 -56.8366 59.9167 233.175C208.49 602.235 571.555 505.551 410.305 790.403" stroke="#8090FF" stroke-width="1.29"/>
<path d="M267.41 -176.616C121.035 -131.22 -108.455 -39.3494 8.29537 250.662C156.868 619.722 519.933 523.038 358.684 807.89" stroke="#8090FF" stroke-width="1.29"/>
<path d="M216.515 -151.892C70.1398 -106.496 -159.35 -14.6254 -42.5998 275.386C105.973 644.446 469.038 547.762 307.789 832.614" stroke="#8090FF" stroke-width="1.29"/>
<path d="M167.111 -118.913C20.7357 -73.517 -208.754 18.3534 -92.0039 308.365C56.5689 677.425 419.634 580.741 258.385 865.593" stroke="#8090FF" stroke-width="1.29"/>
</svg>
